<svg width="1081" height="895" viewBox="0 0 1081 895" fill="none" xmlns="http://www.w3.org/2000/svg">
<path d="M783.018 894.509H763.527V890.598L776.399 875.619H763.928V871.106H783.018V875.018L770.147 889.996H783.018V894.509Z" fill="white"/>
<path d="M634.579 875.853H627.458V894.509H622.309V875.853H615.188V871.106H634.579V875.853Z" fill="white"/>
<path d="M545.05 894.509H539.667L537.527 889.26H527.631L525.491 894.509H520.242L530.272 870.938H535.02L545.05 894.509ZM535.688 884.713L532.579 877.124L529.47 884.713H535.688Z" fill="white"/>
<path d="M448.428 894.509H443.313V879.23L436.727 889.227H436.593L430.073 879.331V894.509H425.025V871.106H430.575L436.727 881.002L442.878 871.106H448.428V894.509Z" fill="white"/>
<path d="M391.37 882.807C391.37 884.479 391.058 886.051 390.434 887.522C389.81 888.97 388.941 890.252 387.827 891.366C386.734 892.459 385.419 893.328 383.881 893.974C382.366 894.598 380.705 894.91 378.9 894.91C377.094 894.91 375.434 894.598 373.918 893.974C372.403 893.328 371.088 892.47 369.973 891.4C368.881 890.308 368.023 889.037 367.399 887.588C366.797 886.117 366.496 884.546 366.496 882.874V882.807C366.496 881.136 366.808 879.576 367.432 878.127C368.056 876.656 368.914 875.374 370.007 874.282C371.121 873.168 372.436 872.298 373.952 871.674C375.49 871.028 377.161 870.705 378.967 870.705C380.772 870.705 382.433 871.028 383.948 871.674C385.464 872.298 386.768 873.156 387.86 874.249C388.974 875.318 389.833 876.589 390.434 878.06C391.058 879.509 391.37 881.069 391.37 882.741V882.807ZM385.988 882.874V882.807C385.988 881.804 385.809 880.857 385.453 879.966C385.118 879.074 384.628 878.294 383.982 877.625C383.358 876.957 382.611 876.433 381.742 876.054C380.872 875.653 379.925 875.452 378.9 875.452C377.852 875.452 376.894 875.642 376.025 876.02C375.178 876.399 374.442 876.923 373.818 877.592C373.216 878.261 372.737 879.041 372.38 879.932C372.046 880.801 371.879 881.738 371.879 882.741V882.807C371.879 883.81 372.046 884.758 372.38 885.649C372.737 886.541 373.227 887.321 373.851 887.99C374.498 888.658 375.244 889.193 376.091 889.594C376.961 889.973 377.919 890.163 378.967 890.163C379.992 890.163 380.939 889.973 381.809 889.594C382.678 889.216 383.413 888.692 384.015 888.023C384.639 887.354 385.118 886.585 385.453 885.716C385.809 884.825 385.988 883.877 385.988 882.874Z" fill="white"/>
<path d="M334.512 894.509H328.494L323.479 887.02H319.433V894.509H314.285V871.106H324.983C327.769 871.106 329.931 871.786 331.469 873.145C333.03 874.505 333.81 876.4 333.81 878.829V878.896C333.81 880.79 333.342 882.34 332.406 883.543C331.492 884.724 330.288 885.594 328.795 886.151L334.512 894.509ZM328.594 879.163V879.097C328.594 877.982 328.237 877.146 327.524 876.589C326.811 876.032 325.819 875.753 324.549 875.753H319.433V882.473H324.649C325.919 882.473 326.889 882.172 327.558 881.571C328.249 880.969 328.594 880.166 328.594 879.163Z" fill="white"/>
<path d="M281.077 875.787H268.406V880.768H279.572V885.449H268.406V894.509H263.257V871.106H281.077V875.787Z" fill="white"/>
<path d="M809.03 508.828C854.38 504.813 894.38 538.357 898.33 583.709C902.28 629.061 868.67 669.011 823.31 672.891C778.04 676.763 738.187 643.246 734.247 597.989C730.307 552.731 763.77 512.834 809.03 508.828ZM871.62 575.149C867.43 541.266 848.77 509.843 810.11 514.135C796.451 516.02 784.12 523.332 775.92 534.419C746.089 573.981 753.686 674.421 823.24 667.026C866.79 661.256 876.15 611.76 871.62 575.149Z" fill="white"/>
<path d="M614.299 148.359C619.037 148.501 622.506 148.686 627.2 149.24C634.749 150.78 639.786 151.893 647.129 154.746C648.959 155.457 657.148 158.967 658.335 159.214C655.494 162.758 649.129 174.158 646.532 178.596L625.02 215.318L551.955 338.794C617.864 338.044 713.424 355.905 745.259 281.136C747.196 276.586 753.461 258.281 755.39 255.991L758.63 256.394L759.36 257.382C759.13 262.521 756.92 266.618 755.89 271.661C749.983 300.468 741.764 328.692 735.59 357.455C706.641 348.947 647.991 350.854 615.81 350.841L496.516 350.937C502.03 337.819 531.008 297.992 527.644 287.201C522.523 270.777 511.348 244.922 503.751 228.994C515.758 221.485 528.22 209.41 537.925 199.217L557.118 245.348C574.92 213.598 595.615 179.848 614.299 148.359Z" fill="white"/>
<path d="M360.763 321.317C361.054 286.989 374.931 254.189 385.722 222.27L389.76 211.078C407.036 165.182 422.942 118.52 440.248 72.5591C458.327 116.003 476.164 159.548 493.758 203.191L498.238 199.414C505.998 191.444 518.38 180.84 526.884 173.107C523.429 162.714 517.844 150.502 513.604 140.198L489.403 80.9971L468.752 30.9151C465.874 23.8711 460.065 8.33914 456.533 2.24214C453.992 1.59114 454.104 1.64714 451.474 2.02814C447.281 7.83114 433.318 50.4181 430.038 59.4001L383.706 185.329C368.27 227.414 352.096 272.712 330.341 312.004C324.044 323.378 315.64 333.578 304.738 340.633C299.668 343.914 290.228 344.261 287.771 348.624L288.372 350.353C290.618 351.385 305.112 350.418 308.644 350.354C324.772 350.062 340.937 350.139 357.048 350.14C362.585 350.141 383.786 351.952 387.743 350.283C387.153 343.732 360.55 346.429 360.763 321.317Z" fill="white"/>
<path d="M509.598 0C511.338 0.451 517.454 1.775 518.598 2.248C543.019 12.359 735.16 3.652 741.468 8.311C742.57 10.68 742.977 14.018 741.829 16.255C735.886 27.845 728.423 39.805 721.864 51.039L684.931 113.765C678.577 124.471 670.457 137.326 664.629 148.12L664.159 148.901C661.113 147.483 654.63 142.571 652.725 142.636C650.262 144.85 647.53 149.113 646.496 152.271C649.741 154.662 654.783 155.944 659.085 158.883L659.019 159.249L658.335 159.214C657.148 158.967 648.959 155.457 647.129 154.746C639.786 151.893 634.749 150.78 627.2 149.24C625.474 147.682 625.209 148.697 623.397 147.345C624.235 143.453 628.602 137.34 630.916 134.046C627.474 133.373 625.305 133.148 622.166 131.52L624.53 131.573C632.469 116.983 642.215 101.459 650.805 87.148L691.016 19.764C649.416 19.57 605.519 15.159 564.345 22.469C534.7 27.732 515.907 48.126 509.161 76.777C508.121 81.043 505.815 89.841 502.836 93.155L501.776 93.1C498.127 85.083 507.673 14.731 509.598 0Z" fill="white"/>
<path d="M548.033 510.222C562.716 510.528 577.404 510.587 592.09 510.401L654.999 596.954C659.77 603.491 678.476 629.887 683.268 634.594C683.166 613.677 683.17 592.759 683.279 571.841C683.355 558.446 684.372 538.211 682.048 525.243C679.868 513.077 662.478 515.558 658.91 513.471C658.765 511.481 658.502 512.341 659.638 510.783C664.16 510.17 707.382 510.274 711.766 510.865L712.302 512.601C710.396 518.03 689.625 507.612 689.519 539.473C689.409 572.876 689.298 607.629 689.429 641.165C689.457 648.271 690.423 666.134 689.095 672.381C683.736 674.375 681.447 668.905 678.701 664.91C664.995 647.869 651.413 628.624 638.454 610.863C617.777 582.609 597.279 554.225 576.961 525.711C577.459 553.337 576.517 581.963 576.985 609.629C577.296 624.957 576.06 639.36 578.562 654.467C581.117 669.894 599.028 662.864 600.195 669.498C596.014 671.469 558.186 670.73 551.15 670.586C549.596 670.555 549.277 669.709 548.706 668.785C550.592 664.854 563.668 665.877 566.864 661.27C568.924 658.302 569.852 653.08 570.058 649.512C571.363 626.901 570.757 604.048 570.877 581.31C570.974 563.028 571.368 543.455 570.199 525.302C569.433 513.389 552.358 516.576 548.12 513.269L548.033 510.222Z" fill="white"/>
<path d="M218.967 502.651C225.502 503.195 223.239 505.444 228.042 508.832C229.352 509.755 235.871 510.054 237.625 510.229C248.296 511.289 330.47 509.413 334.297 511.133C334.145 513.243 333.095 515.132 331.892 516.855C303.431 557.613 274.459 598.014 245.736 638.589C239.493 647.408 232.077 655.821 226.283 664.879L225.681 665.831C258.436 663.537 306.71 670.284 331.148 642.951C334.017 639.743 335.442 636.119 337.954 632.71C339.652 633.046 339.785 633.415 341.051 634.606C340.762 638.409 327.077 671.295 324.589 679.502C318.952 679.222 319.205 678.879 316.046 674.536C301.469 669.576 291.772 671.257 278.736 670.467C268.158 669.827 201.794 672.049 198.445 670.022C198.152 667.31 199.625 664.961 201.241 662.658C214.56 643.678 228.493 624.638 242.232 605.991C264.203 576.075 285.866 545.934 307.216 515.572C277.958 517.091 243.684 511.912 218.452 529.483C210.097 535.3 207.24 546.32 203.675 548.594L202.516 548.275C201.116 542.189 215.468 510.934 218.967 502.651Z" fill="white"/>
<path d="M905.21 510.483C920.86 509.866 937.07 510.778 952.78 510.35C957.98 510.208 964.77 509.978 969.86 510.701L970.74 512.183C969.11 516.322 952.75 513.061 952.57 520.815C952.34 530.881 959.19 543.355 963.05 552.779C969.56 568.776 976.19 584.723 982.94 600.617C988.55 613.811 995.34 633.184 1002.46 644.984C1013.79 618.177 1024.8 591.238 1035.5 564.172C1038.8 555.579 1050.19 530.778 1047.64 521.389C1045.81 514.64 1033.25 515.433 1027.52 513.371C1027 511.756 1026.99 512.547 1027.78 510.965C1034.22 509.875 1064.52 510.429 1072.51 510.439C1075.12 510.318 1079.03 509.558 1080.24 512.222C1077.67 514.816 1071.9 515.057 1068.68 516.804C1061.05 521.07 1055.91 531.294 1052.72 539.184C1034.61 583.958 1015.21 628.709 998.13 673.847L990.67 673.945C968.83 624.936 949 570.802 925.21 522.629C922.21 516.547 910.92 515.558 905.85 513.076L905.21 510.483Z" fill="white"/>
<path d="M510.18 741.719C520.028 742.018 530.527 741.958 540.45 741.941C555.231 741.917 572.046 745.937 568.121 765.012C566.189 774.399 556.306 775.829 548.345 777.239C553.99 786.669 564.036 799.199 571.774 806.999C574.308 807.579 575.147 807.709 577.47 808.779L577.258 809.559C573.208 810.319 567.122 810.049 562.851 810.019L555.789 801.009C550.661 795.129 538.34 775.599 531.034 776.429C525.4 780.609 527.568 799.808 529.848 806.239C530.227 807.308 535.796 807.799 537.612 808.349L537.777 809.319C534.696 809.959 512.955 810.249 511.212 808.879C513.164 806.969 519.57 807.159 519.535 804.129C519.435 795.559 521.811 751.222 518.875 746.258C516.296 743.927 514.034 745.061 510.725 743.596L510.18 741.719ZM544.851 744.667C539.3 744.637 534.096 744.818 528.552 745.136C527.634 753.824 527.829 764.762 527.757 773.689C536.978 774.009 547.631 775.359 555.591 770.471C563.878 759.822 559.29 744.744 544.851 744.667Z" fill="white"/>
<path d="M210.366 742.456C218.793 740.585 242.337 742.691 252.1 742.673C265.252 742.649 275.621 757.788 266.349 769.483C261.394 775.729 256.198 776.099 248.768 776.859C249.162 777.569 249.574 778.259 250.006 778.949C253.659 784.789 270.575 807.818 276.738 807.909C278.178 807.929 280.412 808.869 282.199 809.569L282.906 809.849C276.457 809.869 270.008 809.989 263.563 810.209L256.324 800.599C251.235 793.979 240.22 777.439 232.69 776.119C226.406 778.079 229.047 786.159 228.551 791.579C228.24 794.969 228.573 800.269 229.156 803.609C229.914 807.949 235.26 806.849 238.346 808.409C234.789 810.529 214.954 810.819 211.094 809.239L210.938 808.359C214.661 806.789 216.62 807.739 219.622 805.279C221.971 800.228 220.643 763.493 220.958 755.265C221.548 739.886 215.119 747.066 210.366 742.456ZM256.443 747.866C251.225 742.99 237.206 744.88 230.125 745.302C227.951 747.969 228.712 768.586 228.64 773.62C236.796 773.82 248.757 775.069 255.772 771.195C261.083 764.891 263.043 754.033 256.443 747.866Z" fill="white"/>
<path d="M756.35 807.129L758.27 807.149L758.72 808.259C756.51 809.519 752.904 809.419 750.201 809.599L750.421 808.619C751.843 807.449 754.237 807.449 756.35 807.129Z" fill="white"/>
<path d="M740.423 741.014C741.635 741.064 741.828 740.738 742.612 741.774C745.489 745.576 746.522 750.777 748.244 755.223C752.812 767.015 758.08 778.609 762.11 790.599C764 796.219 765.53 801.51 770.25 805.55C773.18 808.139 776.34 808.029 779.9 809.179C773 809.959 757.12 810.549 750.201 809.599L750.421 808.619C751.843 807.449 754.237 807.449 756.35 807.129C758.45 802.919 757.44 801.429 755.88 796.749C755.012 794.159 754.126 791.579 753.222 789.01C743.882 789.09 734.3 789.289 724.982 789.129C723.465 792.829 719.836 799.909 721.051 803.659C722.497 808.129 728.284 808.009 731.927 809.269C723.576 809.979 710.975 810.179 702.567 809.419C720.84 803.059 713.322 805.029 721.229 790.449C724.8 783.878 738.238 743.191 740.423 741.014ZM738.576 753.888C734.207 764.762 730.071 775.729 726.168 786.779C730.693 786.779 735.434 786.859 739.937 786.729L751.711 786.359C749.972 781.619 741.32 756.631 738.576 753.888Z" fill="white"/>
<path d="M619.153 807.119C623.788 800.619 620.738 759.548 621.272 749.338C621.487 745.228 615.815 744.359 612.616 744.072L611.908 743.136C613.039 741.685 612.679 741.792 615.295 741.547C630.27 740.144 647.808 744.73 661.964 739.266C664.994 745.755 668.959 753.63 671.035 760.366C655.133 744.253 652.838 742.685 629.589 744.992C628.955 753.781 629.172 763.741 629.181 772.649C634.802 772.729 646.197 773.679 650.893 770.288C652.26 769.301 651.749 764.923 653.677 761.987L654.708 761.408C656.394 763.85 656.111 784.259 654.951 786.909L653.874 787.359C652.211 783.409 654.097 780.909 650.196 778.209C644.661 774.369 635.904 775.469 629.329 775.599C629.362 781.919 628.497 800.149 630.462 804.739C633.789 807.749 641.951 806.799 646.364 806.829C660.897 806.899 665.521 797.139 674.447 789.159C671.374 796.959 667.643 804.049 663.335 811.239C646.603 806.919 622.311 812.039 612.378 809.389L612.664 808.259C614.763 806.949 616.416 807.289 619.153 807.119Z" fill="white"/>
<path d="M619.153 807.119L621.345 807.279L621.574 808.139C617.723 809.489 616.556 809.339 612.378 809.389L612.664 808.259C614.763 806.949 616.416 807.289 619.153 807.119Z" fill="white"/>
<path d="M322.285 745.744C319.615 745.139 315.73 744.717 313.905 743.06C317.405 740.55 351.392 743.956 362.804 739.587C365.619 746.235 369.123 752.046 372.066 759.229C369.737 757.465 366.032 753.986 363.716 751.949C353.329 742.813 344.107 744.607 331.049 744.954C330.672 752.136 330.145 764.578 330.953 771.516C332.427 772.869 333.478 772.519 335.959 772.809L333.301 772.819L332.73 773.969L332.871 772.939L330.696 773.739L330.937 774.309C332.647 774.599 340.997 775.379 341.178 775.479C338.291 775.709 333.583 775.659 330.552 775.729C330.881 782.379 329.102 802.139 333.458 806.019C336.908 807.639 341.955 807.259 345.757 807.019C360.205 806.109 366.433 798.519 375.177 788.369C372.618 795.589 367.624 804.709 363.577 811.239C347.711 807.259 325.873 811.099 309.176 809.639C313.741 807.909 317.512 808.039 321.244 805.809C323.804 801.219 323.104 753.035 322.285 745.744Z" fill="white"/>
<path d="M808.05 738.167C818.44 744.415 840.42 741.791 852.61 741.232C855.08 741.119 858.01 739.237 860.11 740.005C862.44 743.255 867.29 755.128 869.38 759.76C864.8 756.284 845.6 736.599 839.01 745.645C836.17 749.541 838.8 778.919 837.87 786.029C837.45 789.219 837.95 801.589 838.59 804.829C841.63 807.069 848.27 807.669 852.57 808.759C847.64 809.479 823.31 811.049 820.05 809.249C823.49 807.979 829.91 805.659 829.77 801.249C829.2 784.239 829.89 767.057 829.54 750.068C829.31 738.526 815.31 745.794 810.19 749.381C805.33 752.782 803.11 755.713 799.4 760.442C801.37 751.735 804.15 746.062 808.05 738.167Z" fill="white"/>
<path d="M415.5 738.244C423.939 743.255 458.78 742.926 468.11 739.225C471.134 745.972 474.749 753.515 477.134 760.425C472.898 756.653 450.899 730.978 445.722 749.899C445.064 752.304 445.612 764.292 445.698 767.574C446.013 779.589 444.64 793.089 446.085 804.869C449.297 807.749 453.923 806.459 455.814 809.199C453.138 810.189 433.386 809.999 429.056 809.849C427.824 809.809 428.099 809.869 427.313 808.679C428.956 806.379 431.435 808.419 435.492 806.029C437.237 803.549 437.826 800.609 437.424 797.629C436.36 789.749 439.686 748.466 435.908 744.865C422.215 741.622 414.716 750.739 407.16 760.046C408.926 752.128 412.218 745.644 415.5 738.244Z" fill="white"/>
<path d="M679.061 870.704C680.866 870.704 682.526 871.028 684.042 871.674C685.557 872.298 686.861 873.156 687.953 874.248C689.067 875.318 689.926 876.589 690.527 878.06C691.151 879.508 691.464 881.069 691.464 882.74V882.808C691.464 884.479 691.151 886.05 690.527 887.521C689.903 888.97 689.034 890.252 687.92 891.366C686.828 892.458 685.513 893.328 683.975 893.975C682.459 894.599 680.798 894.91 678.993 894.91C677.188 894.91 675.527 894.599 674.012 893.975C672.496 893.328 671.181 892.469 670.066 891.399C668.974 890.307 668.116 889.037 667.492 887.589C666.89 886.118 666.59 884.546 666.59 882.874V882.808C666.59 881.136 666.901 879.576 667.525 878.127C668.149 876.656 669.008 875.374 670.1 874.282C671.214 873.168 672.529 872.298 674.045 871.674C675.583 871.027 677.255 870.704 679.061 870.704ZM678.993 875.452C677.946 875.452 676.987 875.642 676.118 876.021C675.271 876.399 674.535 876.923 673.911 877.592C673.309 878.26 672.83 879.041 672.474 879.933C672.139 880.802 671.973 881.738 671.973 882.74V882.808C671.973 883.811 672.139 884.758 672.474 885.649C672.83 886.541 673.321 887.321 673.945 887.989C674.592 888.658 675.338 889.194 676.185 889.595C677.054 889.974 678.013 890.163 679.061 890.163C680.086 890.163 681.033 889.974 681.902 889.595C682.771 889.216 683.507 888.692 684.108 888.023C684.732 887.355 685.212 886.585 685.546 885.716C685.902 884.824 686.081 883.877 686.081 882.874V882.808C686.081 881.805 685.903 880.857 685.546 879.966C685.212 879.074 684.722 878.294 684.075 877.625C683.451 876.956 682.704 876.433 681.835 876.054C680.966 875.653 680.018 875.452 678.993 875.452Z" fill="white"/>
<path d="M335.959 772.809C340.636 772.789 348.126 773.439 352.027 770.334C355.291 767.733 353.05 763.708 355.624 761.147C357.574 764.362 356.866 785.909 356.471 790.759C352.462 779.839 355.219 776.039 341.178 775.479C340.997 775.379 332.647 774.599 330.937 774.309L330.696 773.739L332.871 772.939L332.73 773.969L333.301 772.819L335.959 772.809Z" fill="white"/>
<path d="M42.484 624.124C39.476 631.76 33.661 644.967 32.825 652.606C30.987 669.397 47 664.775 50.015 668.506L49.559 669.366C45.365 671.249 4.27301 671.06 0.327011 669.995L0 669.011C2.955 666.259 17.25 661.961 19.521 657.857C39.856 621.108 54.633 577.434 71.735 538.851C75.005 531.473 81.356 513.006 84.242 508.752C85.969 507.991 89.812 507.205 90.847 509.442C94.634 517.633 98.064 526.143 101.431 534.526C112.548 561.991 123.949 589.34 135.633 616.569C141.159 629.714 146.498 644.348 153.515 656.804C159.665 667.721 170.724 664.396 173.915 669.324L173.244 670.496C154.352 671.829 132.603 669.019 113.373 670.86C111.544 671.035 111.182 670.582 109.853 669.646L109.68 667.803C113.555 664.25 134.202 668.924 127.177 651.999C111.536 614.315 96.833 572.94 79.418 536.207C69.615 556.949 62.163 578.615 53.033 599.646C50.492 605.499 48.105 611.427 45.786 617.372C58.838 617.451 82.915 615.96 92.394 624.668C91.392 627.205 91.209 627.241 88.918 628.905C73.482 622.288 59.013 623.778 42.484 624.124Z" fill="white"/>
<path d="M88.918 628.905C91.209 627.241 91.392 627.205 92.394 624.668C96.188 628.127 97.406 630.153 99.381 635.028L99.157 636.039C95.312 635.415 92.425 631.071 88.918 628.905Z" fill="white"/>
<path d="M394.754 624.124C391.746 631.76 385.931 644.967 385.095 652.606C383.257 669.397 399.27 664.775 402.285 668.506L401.829 669.366C397.635 671.249 356.543 671.06 352.597 669.995L352.27 669.011C355.225 666.259 369.52 661.961 371.791 657.857C392.126 621.108 406.903 577.434 424.005 538.851C427.275 531.473 433.626 513.006 436.512 508.752C438.239 507.991 442.082 507.205 443.117 509.442C446.904 517.633 450.334 526.143 453.701 534.526C464.818 561.991 476.219 589.34 487.903 616.569C493.429 629.714 498.768 644.348 505.785 656.804C511.935 667.721 522.994 664.396 526.185 669.324L525.514 670.496C506.622 671.829 484.873 669.019 465.643 670.86C463.814 671.035 463.452 670.582 462.123 669.646L461.95 667.803C465.825 664.25 486.472 668.924 479.447 651.999C463.806 614.315 449.103 572.94 431.688 536.207C421.885 556.949 414.433 578.615 405.303 599.646C402.762 605.499 400.375 611.427 398.056 617.372C411.108 617.451 435.185 615.96 444.664 624.668C443.662 627.205 443.479 627.241 441.188 628.905C425.752 622.288 411.283 623.778 394.754 624.124Z" fill="white"/>
<path d="M441.188 628.905C443.479 627.241 443.662 627.205 444.664 624.668C448.458 628.127 449.676 630.153 451.651 635.028L451.427 636.039C447.582 635.415 444.695 631.071 441.188 628.905Z" fill="white"/>
<path d="M514.106 183.652C554.77 143.509 606.384 108.466 671.27 151.009C736.156 193.551 701.552 261.187 684.856 266.509C683.035 265.293 683.085 263.976 683.338 263.469C698.271 239.009 720.295 199.587 656.77 161.509C593.246 123.43 537.77 192.009 501.77 218.509C470.638 241.425 432.143 250.772 386.036 221.561L390.312 209.59C409.628 221.364 429.559 226.315 439.736 226.221C462.502 226.009 473.442 223.795 514.106 183.652ZM363.42 204.564C307.848 155.888 323.128 34.6783 425.317 40.744L420.763 53.6669C395.72 53.4135 336.77 61.0089 341.081 131.202C342.696 157.507 353.758 177.469 368.158 192.139L363.42 204.564Z" fill="white"/>
<path d="M514.106 183.652C554.77 143.509 606.384 108.466 671.27 151.009C736.156 193.551 701.552 261.187 684.856 266.509C683.035 265.293 683.085 263.976 683.338 263.469C698.271 239.009 720.295 199.587 656.77 161.509C593.246 123.43 537.77 192.009 501.77 218.509C470.638 241.425 432.143 250.772 386.036 221.561L390.312 209.59C409.628 221.364 429.559 226.315 439.736 226.221C462.502 226.009 473.442 223.795 514.106 183.652ZM363.42 204.564C307.848 155.888 323.128 34.6783 425.317 40.744L420.763 53.6669C395.72 53.4135 336.77 61.0089 341.081 131.202C342.696 157.507 353.758 177.469 368.158 192.139L363.42 204.564Z" fill="url(#paint0_radial_19_222)"/>
<path d="M514.106 183.652C554.77 143.509 606.384 108.466 671.27 151.009C736.156 193.551 701.552 261.187 684.856 266.509C683.035 265.293 683.085 263.976 683.338 263.469C698.271 239.009 720.295 199.587 656.77 161.509C593.246 123.43 537.77 192.009 501.77 218.509C470.638 241.425 432.143 250.772 386.036 221.561L390.312 209.59C409.628 221.364 429.559 226.315 439.736 226.221C462.502 226.009 473.442 223.795 514.106 183.652ZM363.42 204.564C307.848 155.888 323.128 34.6783 425.317 40.744L420.763 53.6669C395.72 53.4135 336.77 61.0089 341.081 131.202C342.696 157.507 353.758 177.469 368.158 192.139L363.42 204.564Z" fill="url(#paint1_radial_19_222)"/>
<path d="M514.106 183.652C554.77 143.509 606.384 108.466 671.27 151.009C736.156 193.551 701.552 261.187 684.856 266.509C683.035 265.293 683.085 263.976 683.338 263.469C698.271 239.009 720.295 199.587 656.77 161.509C593.246 123.43 537.77 192.009 501.77 218.509C470.638 241.425 432.143 250.772 386.036 221.561L390.312 209.59C409.628 221.364 429.559 226.315 439.736 226.221C462.502 226.009 473.442 223.795 514.106 183.652ZM363.42 204.564C307.848 155.888 323.128 34.6783 425.317 40.744L420.763 53.6669C395.72 53.4135 336.77 61.0089 341.081 131.202C342.696 157.507 353.758 177.469 368.158 192.139L363.42 204.564Z" fill="url(#paint2_radial_19_222)"/>
<path d="M514.106 183.652C554.77 143.509 606.384 108.466 671.27 151.009C736.156 193.551 701.552 261.187 684.856 266.509C683.035 265.293 683.085 263.976 683.338 263.469C698.271 239.009 720.295 199.587 656.77 161.509C593.246 123.43 537.77 192.009 501.77 218.509C470.638 241.425 432.143 250.772 386.036 221.561L390.312 209.59C409.628 221.364 429.559 226.315 439.736 226.221C462.502 226.009 473.442 223.795 514.106 183.652ZM363.42 204.564C307.848 155.888 323.128 34.6783 425.317 40.744L420.763 53.6669C395.72 53.4135 336.77 61.0089 341.081 131.202C342.696 157.507 353.758 177.469 368.158 192.139L363.42 204.564Z" fill="url(#paint3_radial_19_222)"/>
<defs>
<radialGradient id="paint0_radial_19_222" cx="0" cy="0" r="1" gradientUnits="userSpaceOnUse" gradientTransform="translate(690.77 166.509) rotate(155.442) scale(83.009 101.592)">
<stop stop-color="white"/>
<stop offset="1" stop-color="white" stop-opacity="0"/>
</radialGradient>
<radialGradient id="paint1_radial_19_222" cx="0" cy="0" r="1" gradientUnits="userSpaceOnUse" gradientTransform="translate(462.27 236.009) rotate(-10.7389) scale(59.0339 72.2497)">
<stop stop-color="white"/>
<stop offset="1" stop-color="white" stop-opacity="0"/>
</radialGradient>
<radialGradient id="paint2_radial_19_222" cx="0" cy="0" r="1" gradientUnits="userSpaceOnUse" gradientTransform="translate(376.27 56.009) rotate(50.8263) scale(34.8282 42.6251)">
<stop stop-color="white"/>
<stop offset="1" stop-color="white" stop-opacity="0"/>
</radialGradient>
<radialGradient id="paint3_radial_19_222" cx="0" cy="0" r="1" gradientUnits="userSpaceOnUse" gradientTransform="translate(357.27 186.009) rotate(-68.2946) scale(110.86 33.522)">
<stop stop-color="white"/>
<stop offset="1" stop-color="white" stop-opacity="0"/>
</radialGradient>
</defs>
</svg>
