<svg width="472" height="358" viewBox="0 0 472 358" fill="none" xmlns="http://www.w3.org/2000/svg">
<path d="M326.528 148.359C331.266 148.501 334.735 148.686 339.429 149.24C346.978 150.78 352.015 151.893 359.358 154.746C361.188 155.457 369.377 158.967 370.564 159.214C367.723 162.758 361.358 174.158 358.761 178.596L337.249 215.318L264.184 338.794C330.093 338.044 425.653 355.905 457.488 281.136C459.425 276.586 465.69 258.281 467.619 255.991L470.859 256.394L471.589 257.382C471.359 262.521 469.149 266.618 468.119 271.661C462.212 300.468 453.993 328.692 447.819 357.455C418.87 348.947 360.22 350.854 328.039 350.841L208.745 350.937C214.259 337.819 243.237 297.992 239.873 287.201C234.752 270.777 223.577 244.922 215.98 228.994C227.987 221.485 240.449 209.41 250.154 199.217L269.347 245.348C287.149 213.598 307.844 179.848 326.528 148.359Z" fill="white"/>
<path d="M72.992 321.317C73.283 286.989 87.16 254.189 97.951 222.27L101.989 211.078C119.265 165.182 135.171 118.52 152.477 72.5591C170.556 116.003 188.393 159.548 205.987 203.191L210.467 199.414C218.227 191.444 230.609 180.84 239.113 173.107C235.658 162.714 230.073 150.502 225.833 140.198L201.632 80.9971L180.981 30.9151C178.103 23.8711 172.294 8.33914 168.762 2.24214C166.221 1.59114 166.333 1.64714 163.703 2.02814C159.51 7.83114 145.547 50.4181 142.267 59.4001L95.935 185.329C80.499 227.414 64.325 272.712 42.57 312.004C36.273 323.378 27.869 333.578 16.967 340.633C11.897 343.914 2.457 344.261 0 348.624L0.601013 350.353C2.84701 351.385 17.341 350.418 20.873 350.354C37.001 350.062 53.166 350.139 69.277 350.14C74.814 350.141 96.015 351.952 99.972 350.283C99.382 343.732 72.779 346.429 72.992 321.317Z" fill="white"/>
<path d="M221.827 0C223.567 0.451 229.683 1.775 230.827 2.248C255.248 12.359 447.389 3.652 453.697 8.311C454.799 10.68 455.206 14.018 454.058 16.255C448.115 27.845 440.652 39.805 434.093 51.039L397.16 113.765C390.806 124.471 382.686 137.326 376.858 148.12L376.388 148.901C373.342 147.483 366.859 142.571 364.954 142.636C362.491 144.85 359.759 149.113 358.725 152.271C361.97 154.662 367.012 155.944 371.314 158.883L371.248 159.249L370.564 159.214C369.377 158.967 361.188 155.457 359.358 154.746C352.015 151.893 346.978 150.78 339.429 149.24C337.703 147.682 337.438 148.697 335.626 147.345C336.464 143.453 340.831 137.34 343.145 134.046C339.703 133.373 337.534 133.148 334.395 131.52L336.759 131.573C344.698 116.983 354.444 101.459 363.034 87.148L403.245 19.764C361.645 19.57 317.748 15.159 276.574 22.469C246.929 27.732 228.136 48.126 221.39 76.777C220.35 81.043 218.044 89.841 215.065 93.155L214.005 93.1C210.356 85.083 219.902 14.731 221.827 0Z" fill="white"/>
<path d="M226.335 183.652C266.999 143.509 318.613 108.466 383.499 151.009C448.385 193.551 413.781 261.187 397.085 266.509C395.264 265.293 395.314 263.976 395.567 263.469C410.5 239.009 432.524 199.587 368.999 161.509C305.475 123.43 249.999 192.009 213.999 218.509C182.867 241.425 144.372 250.772 98.265 221.561L102.541 209.59C121.857 221.364 141.788 226.315 151.965 226.221C174.731 226.009 185.671 223.795 226.335 183.652ZM75.649 204.564C20.077 155.888 35.357 34.6783 137.546 40.744L132.992 53.6669C107.949 53.4135 48.999 61.0089 53.31 131.202C54.925 157.507 65.987 177.469 80.387 192.139L75.649 204.564Z" fill="white"/>
<path d="M226.335 183.652C266.999 143.509 318.613 108.466 383.499 151.009C448.385 193.551 413.781 261.187 397.085 266.509C395.264 265.293 395.314 263.976 395.567 263.469C410.5 239.009 432.524 199.587 368.999 161.509C305.475 123.43 249.999 192.009 213.999 218.509C182.867 241.425 144.372 250.772 98.265 221.561L102.541 209.59C121.857 221.364 141.788 226.315 151.965 226.221C174.731 226.009 185.671 223.795 226.335 183.652ZM75.649 204.564C20.077 155.888 35.357 34.6783 137.546 40.744L132.992 53.6669C107.949 53.4135 48.999 61.0089 53.31 131.202C54.925 157.507 65.987 177.469 80.387 192.139L75.649 204.564Z" fill="url(#paint0_radial_21_37)"/>
<path d="M226.335 183.652C266.999 143.509 318.613 108.466 383.499 151.009C448.385 193.551 413.781 261.187 397.085 266.509C395.264 265.293 395.314 263.976 395.567 263.469C410.5 239.009 432.524 199.587 368.999 161.509C305.475 123.43 249.999 192.009 213.999 218.509C182.867 241.425 144.372 250.772 98.265 221.561L102.541 209.59C121.857 221.364 141.788 226.315 151.965 226.221C174.731 226.009 185.671 223.795 226.335 183.652ZM75.649 204.564C20.077 155.888 35.357 34.6783 137.546 40.744L132.992 53.6669C107.949 53.4135 48.999 61.0089 53.31 131.202C54.925 157.507 65.987 177.469 80.387 192.139L75.649 204.564Z" fill="url(#paint1_radial_21_37)"/>
<path d="M226.335 183.652C266.999 143.509 318.613 108.466 383.499 151.009C448.385 193.551 413.781 261.187 397.085 266.509C395.264 265.293 395.314 263.976 395.567 263.469C410.5 239.009 432.524 199.587 368.999 161.509C305.475 123.43 249.999 192.009 213.999 218.509C182.867 241.425 144.372 250.772 98.265 221.561L102.541 209.59C121.857 221.364 141.788 226.315 151.965 226.221C174.731 226.009 185.671 223.795 226.335 183.652ZM75.649 204.564C20.077 155.888 35.357 34.6783 137.546 40.744L132.992 53.6669C107.949 53.4135 48.999 61.0089 53.31 131.202C54.925 157.507 65.987 177.469 80.387 192.139L75.649 204.564Z" fill="url(#paint2_radial_21_37)"/>
<path d="M226.335 183.652C266.999 143.509 318.613 108.466 383.499 151.009C448.385 193.551 413.781 261.187 397.085 266.509C395.264 265.293 395.314 263.976 395.567 263.469C410.5 239.009 432.524 199.587 368.999 161.509C305.475 123.43 249.999 192.009 213.999 218.509C182.867 241.425 144.372 250.772 98.265 221.561L102.541 209.59C121.857 221.364 141.788 226.315 151.965 226.221C174.731 226.009 185.671 223.795 226.335 183.652ZM75.649 204.564C20.077 155.888 35.357 34.6783 137.546 40.744L132.992 53.6669C107.949 53.4135 48.999 61.0089 53.31 131.202C54.925 157.507 65.987 177.469 80.387 192.139L75.649 204.564Z" fill="url(#paint3_radial_21_37)"/>
<defs>
<radialGradient id="paint0_radial_21_37" cx="0" cy="0" r="1" gradientUnits="userSpaceOnUse" gradientTransform="translate(402.999 166.509) rotate(155.442) scale(83.009 101.592)">
<stop stop-color="white"/>
<stop offset="1" stop-color="white" stop-opacity="0"/>
</radialGradient>
<radialGradient id="paint1_radial_21_37" cx="0" cy="0" r="1" gradientUnits="userSpaceOnUse" gradientTransform="translate(174.499 236.009) rotate(-10.7389) scale(59.0339 72.2497)">
<stop stop-color="white"/>
<stop offset="1" stop-color="white" stop-opacity="0"/>
</radialGradient>
<radialGradient id="paint2_radial_21_37" cx="0" cy="0" r="1" gradientUnits="userSpaceOnUse" gradientTransform="translate(88.499 56.009) rotate(50.8263) scale(34.8282 42.6251)">
<stop stop-color="white"/>
<stop offset="1" stop-color="white" stop-opacity="0"/>
</radialGradient>
<radialGradient id="paint3_radial_21_37" cx="0" cy="0" r="1" gradientUnits="userSpaceOnUse" gradientTransform="translate(69.499 186.009) rotate(-68.2946) scale(110.86 33.522)">
<stop stop-color="white"/>
<stop offset="1" stop-color="white" stop-opacity="0"/>
</radialGradient>
</defs>
</svg>
