<svg width="1081" height="909" viewBox="0 0 1081 909" fill="none" xmlns="http://www.w3.org/2000/svg">
<path d="M841.27 908.383H818.683V903.85L833.599 886.493H819.148V881.263H841.27V885.796L826.354 903.152H841.27V908.383Z" fill="#63CBBD"/>
<path d="M735.177 894.823C735.177 896.76 734.815 898.581 734.092 900.285C733.369 901.964 732.361 903.449 731.07 904.741C729.804 906.006 728.28 907.014 726.498 907.763C724.742 908.486 722.818 908.847 720.726 908.847C718.633 908.847 716.709 908.486 714.953 907.763C713.197 907.014 711.673 906.019 710.381 904.779C709.116 903.514 708.121 902.042 707.398 900.363C706.701 898.658 706.352 896.837 706.352 894.9V894.823C706.352 892.885 706.714 891.077 707.437 889.399C708.16 887.694 709.154 886.209 710.42 884.943C711.711 883.652 713.235 882.644 714.992 881.921C716.774 881.172 718.711 880.798 720.803 880.798C722.895 880.798 724.819 881.172 726.576 881.921C728.332 882.644 729.843 883.639 731.109 884.904C732.4 886.144 733.394 887.616 734.092 889.321C734.815 891 735.177 892.808 735.177 894.745V894.823ZM728.939 894.9V894.823C728.939 893.66 728.732 892.563 728.319 891.529C727.932 890.496 727.363 889.592 726.614 888.817C725.891 888.043 725.026 887.436 724.019 886.997C723.011 886.532 721.914 886.299 720.726 886.299C719.512 886.299 718.401 886.519 717.394 886.958C716.412 887.397 715.56 888.004 714.837 888.779C714.139 889.554 713.584 890.458 713.171 891.491C712.783 892.498 712.59 893.583 712.59 894.745V894.823C712.59 895.985 712.783 897.083 713.171 898.116C713.584 899.149 714.152 900.053 714.875 900.828C715.624 901.603 716.49 902.222 717.471 902.687C718.479 903.126 719.589 903.346 720.803 903.346C721.991 903.346 723.089 903.126 724.096 902.687C725.104 902.248 725.956 901.641 726.653 900.866C727.376 900.092 727.932 899.2 728.319 898.193C728.732 897.16 728.939 896.062 728.939 894.9Z" fill="#63CBBD"/>
<path d="M669.258 886.764H661.006V908.383H655.04V886.764H646.788V881.263H669.258V886.764Z" fill="#63CBBD"/>
<path d="M565.512 908.383H559.274L556.795 902.3H545.327L542.847 908.383H536.765L548.387 881.069H553.889L565.512 908.383ZM554.664 897.031L551.061 888.236L547.458 897.031H554.664Z" fill="#63CBBD"/>
<path d="M453.547 908.383H447.619V890.677L439.987 902.261H439.832L432.277 890.793V908.383H426.427V881.263H432.858L439.987 892.731L447.115 881.263H453.547V908.383Z" fill="#63CBBD"/>
<path d="M387.428 894.823C387.428 896.76 387.067 898.581 386.343 900.285C385.62 901.964 384.613 903.449 383.321 904.741C382.056 906.006 380.532 907.014 378.75 907.763C376.993 908.486 375.069 908.847 372.977 908.847C370.885 908.847 368.961 908.486 367.204 907.763C365.448 907.014 363.924 906.019 362.633 904.779C361.367 903.514 360.373 902.042 359.65 900.363C358.952 898.658 358.604 896.837 358.604 894.9V894.823C358.604 892.885 358.965 891.077 359.688 889.399C360.412 887.694 361.406 886.209 362.672 884.943C363.963 883.652 365.487 882.644 367.243 881.921C369.025 881.172 370.963 880.798 373.055 880.798C375.147 880.798 377.071 881.172 378.827 881.921C380.584 882.644 382.095 883.639 383.36 884.904C384.652 886.144 385.646 887.616 386.343 889.321C387.067 891 387.428 892.808 387.428 894.745V894.823ZM381.191 894.9V894.823C381.191 893.66 380.984 892.563 380.571 891.529C380.183 890.496 379.615 889.592 378.866 888.817C378.143 888.043 377.278 887.436 376.27 886.997C375.263 886.532 374.165 886.299 372.977 886.299C371.763 886.299 370.653 886.519 369.645 886.958C368.664 887.397 367.811 888.004 367.088 888.779C366.391 889.554 365.836 890.458 365.422 891.491C365.035 892.498 364.841 893.583 364.841 894.745V894.823C364.841 895.985 365.035 897.083 365.422 898.116C365.836 899.149 366.404 900.053 367.127 900.828C367.876 901.603 368.741 902.222 369.723 902.687C370.73 903.126 371.841 903.346 373.055 903.346C374.243 903.346 375.34 903.126 376.348 902.687C377.355 902.248 378.207 901.641 378.905 900.866C379.628 900.092 380.183 899.2 380.571 898.193C380.984 897.16 381.191 896.062 381.191 894.9Z" fill="#63CBBD"/>
<path d="M321.54 908.383H314.567L308.755 899.704H304.067V908.383H298.101V881.263H310.499C313.727 881.263 316.233 882.05 318.015 883.626C319.823 885.202 320.727 887.397 320.727 890.212V890.29C320.727 892.485 320.184 894.28 319.099 895.675C318.04 897.044 316.646 898.051 314.915 898.697L321.54 908.383ZM314.683 890.6V890.522C314.683 889.231 314.27 888.262 313.443 887.616C312.617 886.971 311.467 886.648 309.995 886.648H304.067V894.435H310.111C311.583 894.435 312.707 894.087 313.482 893.389C314.282 892.692 314.683 891.762 314.683 890.6Z" fill="#63CBBD"/>
<path d="M259.62 886.687H244.936V892.459H257.876V897.883H244.936V908.383H238.97V881.263H259.62V886.687Z" fill="#63CBBD"/>
<path d="M550.114 732.155C558.393 731.829 566.969 732.312 575.279 732.085C578.03 732.01 581.622 731.888 584.315 732.271L584.781 733.055C583.918 735.244 575.264 733.519 575.168 737.621C575.047 742.946 578.67 749.545 580.713 754.531C584.156 762.994 587.664 771.43 591.235 779.838C594.203 786.818 597.795 797.067 601.561 803.309C607.555 789.128 613.38 774.877 619.04 760.558C620.786 756.012 626.811 742.892 625.462 737.925C624.494 734.355 617.85 734.774 614.818 733.683C614.543 732.829 614.538 733.247 614.956 732.41C618.363 731.834 634.392 732.127 638.619 732.132C640 732.068 642.068 731.666 642.708 733.075C641.349 734.448 638.296 734.575 636.593 735.499C632.557 737.756 629.837 743.165 628.15 747.339C618.569 771.025 608.306 794.699 599.271 818.578L595.324 818.63C583.77 792.703 573.28 764.065 560.694 738.581C559.107 735.363 553.135 734.84 550.452 733.527L550.114 732.155Z" fill="#010534"/>
<path d="M331.085 733.602C343.354 733.974 356.434 733.899 368.796 733.878C387.21 733.848 408.158 738.856 403.269 762.62C400.862 774.314 388.55 776.096 378.632 777.853C385.665 789.601 398.179 805.211 407.819 814.929C410.976 815.651 412.022 815.813 414.916 817.146L414.651 818.118C409.606 819.065 402.024 818.728 396.703 818.69L387.905 807.466C381.518 800.14 366.168 775.81 357.066 776.844C350.047 782.051 352.748 805.971 355.588 813.981C356.06 815.314 362.997 815.925 365.26 816.61L365.466 817.818C361.628 818.616 334.538 818.977 332.37 817.271C334.802 814.891 342.784 815.127 342.739 811.353C342.615 800.675 345.575 745.439 341.917 739.256C338.703 736.352 335.886 737.765 331.764 735.939L331.085 733.602ZM374.278 737.274C367.363 737.237 360.88 737.462 353.973 737.858C352.829 748.682 353.072 762.309 352.983 773.431C364.47 773.829 377.742 775.51 387.658 769.421C397.982 756.154 392.267 737.37 374.278 737.274Z" fill="#010534"/>
<path d="M512.556 815.091L514.948 815.116L515.509 816.498C512.756 818.068 508.263 817.943 504.896 818.168L505.17 816.947C506.942 815.489 509.924 815.489 512.556 815.091Z" fill="#030316"/>
<path d="M492.714 732.723C494.224 732.786 494.465 732.38 495.442 733.671C499.026 738.407 500.312 744.887 502.457 750.426C508.148 765.116 514.712 779.56 519.733 794.497C522.087 801.498 523.993 808.089 529.873 813.122C533.524 816.348 537.46 816.212 541.895 817.644C533.299 818.616 513.516 819.351 504.896 818.168L505.17 816.947C506.942 815.49 509.924 815.489 512.556 815.091C515.172 809.846 513.915 807.989 511.971 802.159C510.89 798.932 509.786 795.718 508.66 792.516C497.024 792.616 485.086 792.865 473.478 792.666C471.588 797.275 467.067 806.096 468.581 810.767C470.382 816.336 477.592 816.187 482.13 817.757C471.727 818.641 456.028 818.89 445.553 817.943C468.317 810.02 458.95 812.474 468.802 794.31C473.25 786.125 489.993 735.433 492.714 732.723ZM490.414 748.762C484.971 762.309 479.818 775.972 474.956 789.738C480.593 789.738 486.498 789.838 492.108 789.676L506.777 789.215C504.61 783.309 493.832 752.178 490.414 748.762Z" fill="url(#paint0_linear_26_20)"/>
<path d="M688.527 815.078C694.302 806.98 690.502 755.813 691.167 743.093C691.435 737.973 684.369 736.891 680.383 736.533L679.501 735.367C680.91 733.559 680.462 733.693 683.721 733.387C702.377 731.639 724.226 737.353 741.862 730.546C745.637 738.63 750.576 748.441 753.163 756.832C733.352 736.759 730.493 734.805 701.529 737.679C700.739 748.629 701.009 761.037 701.02 772.135C708.023 772.234 722.219 773.418 728.07 769.193C729.773 767.964 729.136 762.51 731.538 758.852L732.822 758.13C734.923 761.173 734.57 786.599 733.125 789.9L731.783 790.461C729.712 785.54 732.061 782.425 727.201 779.061C720.306 774.278 709.396 775.648 701.205 775.81C701.246 783.683 700.168 806.395 702.616 812.113C706.761 815.863 716.929 814.679 722.427 814.717C740.533 814.804 746.293 802.645 757.414 792.703C753.585 802.421 748.937 811.253 743.57 820.211C722.725 814.829 692.462 821.207 680.087 817.906L680.443 816.498C683.058 814.866 685.118 815.29 688.527 815.078Z" fill="#010534"/>
<path d="M688.527 815.078L691.258 815.277L691.543 816.349C686.746 818.03 685.292 817.843 680.087 817.906L680.443 816.498C683.058 814.866 685.118 815.29 688.527 815.078Z" fill="#030316"/>
<path d="M819.275 732.085C810.964 732.312 802.388 731.829 794.109 732.155L794.448 733.527C797.13 734.84 803.102 735.363 804.689 738.581L815.426 737.621C815.521 733.519 827.913 735.244 828.776 733.055L828.31 732.271C825.617 731.888 822.025 732.01 819.275 732.085Z" fill="#010534"/>
<path d="M802.384 815.078C808.158 806.98 804.358 755.813 805.024 743.094C805.024 735.205 797.577 733.387 797.577 733.387C816.234 731.64 815.385 737.679 815.385 737.679C814.595 748.629 815.061 775.81 815.061 775.81C815.061 775.81 814.025 806.395 816.473 812.113C820.618 815.863 830.786 814.679 836.284 814.717C854.389 814.804 860.15 802.645 871.27 792.703C867.442 802.421 862.793 811.253 857.426 820.211C836.581 814.829 806.318 821.207 793.943 817.906L794.3 816.498C796.915 814.866 798.974 815.29 802.384 815.078Z" fill="#010534"/>
<path d="M802.384 815.078L805.115 815.277L805.4 816.349C800.602 818.03 799.148 817.843 793.943 817.906L794.3 816.498C796.915 814.866 798.974 815.29 802.384 815.078Z" fill="#030316"/>
<path d="M219.36 729.272C229.873 735.515 273.279 735.105 284.902 730.494C288.67 738.9 293.173 748.297 296.145 756.906C290.867 752.206 263.461 720.22 257.011 743.792C256.191 746.788 256.874 761.723 256.981 765.812C257.374 780.781 255.663 797.599 257.463 812.275C261.465 815.863 267.228 814.256 269.584 817.669C266.25 818.902 241.643 818.666 236.248 818.479C234.714 818.429 235.056 818.504 234.077 817.021C236.124 814.156 239.212 816.697 244.266 813.72C246.44 810.63 247.174 806.968 246.673 803.255C245.348 793.438 249.491 742.007 244.785 737.521C227.726 733.481 218.383 744.839 208.97 756.434C211.17 746.569 215.271 738.491 219.36 729.272Z" fill="#010534"/>
<path fill-rule="evenodd" clip-rule="evenodd" d="M809.03 508.828C854.38 504.813 894.38 538.358 898.33 583.709C902.28 629.061 868.67 669.011 823.31 672.891C778.04 676.763 738.187 643.246 734.247 597.989C730.307 552.731 763.77 512.834 809.03 508.828ZM871.62 575.149C867.43 541.266 848.77 509.842 810.11 514.135C796.45 516.02 784.12 523.332 775.92 534.419C746.089 573.982 753.686 674.421 823.24 667.026C866.79 661.256 876.15 611.76 871.62 575.149Z" fill="#010534"/>
<path d="M548.033 510.222C562.716 510.528 577.404 510.587 592.09 510.401L654.999 596.954C659.77 603.491 678.476 629.887 683.268 634.594C683.166 613.677 683.17 592.759 683.279 571.841C683.355 558.446 684.372 538.211 682.048 525.243C679.868 513.077 662.478 515.558 658.91 513.471C658.765 511.481 658.502 512.341 659.638 510.783C664.16 510.17 707.382 510.274 711.766 510.865L712.302 512.601C710.396 518.03 689.625 507.612 689.519 539.473C689.409 572.876 689.298 607.629 689.429 641.165C689.457 648.271 690.423 666.134 689.095 672.381C683.736 674.375 681.447 668.905 678.701 664.91C664.995 647.869 651.413 628.624 638.454 610.863C617.777 582.609 597.279 554.225 576.961 525.711C577.459 553.337 576.517 581.963 576.985 609.629C577.296 624.957 576.06 639.36 578.562 654.467C581.117 669.894 599.028 662.864 600.195 669.498C596.014 671.469 558.186 670.73 551.15 670.586C549.596 670.555 549.277 669.709 548.706 668.785C550.592 664.854 563.668 665.877 566.864 661.27C568.924 658.302 569.852 653.08 570.058 649.512C571.363 626.901 570.757 604.048 570.877 581.31C570.974 563.028 571.368 543.455 570.199 525.302C569.433 513.389 552.358 516.576 548.12 513.269L548.033 510.222Z" fill="#010534"/>
<path d="M218.967 502.651C225.502 503.195 223.239 505.444 228.042 508.832C229.352 509.755 235.871 510.054 237.625 510.229C248.296 511.289 330.47 509.413 334.297 511.133C334.145 513.243 333.095 515.132 331.892 516.855C303.431 557.613 274.459 598.014 245.736 638.589C239.493 647.408 232.077 655.821 226.283 664.879L225.681 665.831C258.436 663.537 306.71 670.284 331.148 642.951C334.017 639.743 335.442 636.119 337.954 632.71C339.652 633.046 339.785 633.415 341.051 634.606C340.762 638.409 327.077 671.295 324.589 679.502C318.952 679.222 319.205 678.879 316.046 674.536C301.469 669.576 291.772 671.257 278.736 670.467C268.158 669.827 201.794 672.049 198.445 670.022C198.152 667.31 199.625 664.961 201.241 662.658C214.56 643.678 228.493 624.638 242.232 605.991C264.203 576.075 285.866 545.934 307.216 515.572C277.958 517.091 243.684 511.912 218.452 529.483C210.097 535.3 207.24 546.32 203.675 548.594L202.516 548.275C201.116 542.189 215.468 510.934 218.967 502.651Z" fill="#010534"/>
<path d="M905.21 510.483C920.86 509.866 937.07 510.778 952.78 510.35C957.98 510.208 964.77 509.978 969.86 510.701L970.74 512.183C969.11 516.322 952.75 513.061 952.57 520.815C952.34 530.881 959.19 543.355 963.05 552.779C969.56 568.776 976.19 584.723 982.94 600.617C988.55 613.811 995.34 633.184 1002.46 644.984C1013.79 618.177 1024.8 591.238 1035.5 564.172C1038.8 555.579 1050.19 530.778 1047.64 521.389C1045.81 514.64 1033.25 515.433 1027.52 513.371C1027 511.756 1026.99 512.547 1027.78 510.965C1034.22 509.875 1064.52 510.429 1072.51 510.439C1075.12 510.318 1079.03 509.558 1080.24 512.222C1077.67 514.816 1071.9 515.057 1068.68 516.804C1061.05 521.07 1055.91 531.294 1052.72 539.184C1034.61 583.958 1015.21 628.709 998.13 673.847L990.67 673.945C968.83 624.936 949 570.802 925.21 522.629C922.21 516.547 910.92 515.558 905.85 513.076L905.21 510.483Z" fill="#010534"/>
<path d="M42.484 624.124C39.476 631.76 33.661 644.967 32.825 652.606C30.987 669.397 47 664.775 50.015 668.506L49.559 669.366C45.365 671.249 4.27301 671.06 0.327011 669.995L0 669.011C2.955 666.259 17.25 661.961 19.521 657.857C39.856 621.108 54.633 577.434 71.735 538.851C75.005 531.473 81.356 513.006 84.242 508.752C85.969 507.991 89.812 507.205 90.847 509.442C94.634 517.633 98.064 526.143 101.431 534.526C112.548 561.991 123.949 589.34 135.633 616.569C141.159 629.714 146.498 644.348 153.515 656.804C159.665 667.721 170.724 664.396 173.915 669.324L173.244 670.496C154.352 671.829 132.603 669.019 113.373 670.86C111.544 671.035 111.182 670.582 109.853 669.646L109.68 667.803C113.555 664.25 134.202 668.924 127.177 651.999C111.536 614.315 96.833 572.94 79.418 536.207C69.615 556.949 62.163 578.615 53.033 599.646C50.492 605.499 48.105 611.427 45.786 617.372C58.838 617.451 82.915 615.96 92.394 624.668C91.392 627.205 91.209 627.241 88.918 628.905C73.482 622.288 59.013 623.778 42.484 624.124Z" fill="#010534"/>
<path d="M88.918 628.905C91.209 627.241 91.392 627.205 92.394 624.668C96.188 628.127 97.406 630.153 99.381 635.028L99.157 636.039C95.312 635.415 92.425 631.071 88.918 628.905Z" fill="#030316"/>
<path d="M394.754 624.124C391.746 631.76 385.931 644.967 385.095 652.606C383.257 669.397 399.27 664.775 402.285 668.506L401.829 669.366C397.635 671.249 356.543 671.06 352.597 669.995L352.27 669.011C355.225 666.259 369.52 661.961 371.791 657.857C392.126 621.108 406.903 577.434 424.005 538.851C427.275 531.473 433.626 513.006 436.512 508.752C438.239 507.991 442.082 507.205 443.117 509.442C446.904 517.633 450.334 526.143 453.701 534.526C464.818 561.991 476.219 589.34 487.903 616.569C493.429 629.714 498.768 644.348 505.785 656.804C511.935 667.721 522.994 664.396 526.185 669.324L525.514 670.496C506.622 671.829 484.873 669.019 465.643 670.86C463.814 671.035 463.452 670.582 462.123 669.646L461.95 667.803C465.825 664.25 486.472 668.924 479.447 651.999C463.806 614.315 449.103 572.94 431.688 536.207C421.885 556.949 414.433 578.615 405.303 599.646C402.762 605.499 400.375 611.427 398.056 617.372C411.108 617.451 435.185 615.96 444.664 624.668C443.662 627.205 443.479 627.241 441.188 628.905C425.752 622.288 411.283 623.778 394.754 624.124Z" fill="#010534"/>
<path d="M441.188 628.905C443.479 627.241 443.662 627.205 444.664 624.668C448.458 628.127 449.676 630.153 451.651 635.028L451.427 636.039C447.582 635.415 444.695 631.071 441.188 628.905Z" fill="#030316"/>
<path d="M630.853 148.359C635.591 148.501 639.06 148.686 643.754 149.24C651.303 150.78 656.34 151.893 663.683 154.746C665.513 155.457 673.702 158.967 674.889 159.214C672.048 162.758 665.683 174.158 663.086 178.596L641.574 215.318L568.509 338.794C634.418 338.044 729.978 355.905 761.813 281.136C763.75 276.586 770.015 258.281 771.944 255.991L775.184 256.394L775.914 257.382C775.684 262.521 773.474 266.618 772.444 271.661C766.537 300.468 758.318 328.692 752.144 357.455C723.195 348.947 664.545 350.854 632.364 350.841L513.07 350.937C518.584 337.819 547.562 297.992 544.198 287.201C539.077 270.777 527.902 244.922 520.305 228.994C532.312 221.485 544.774 209.41 554.479 199.217L573.672 245.348C591.474 213.598 612.169 179.848 630.853 148.359Z" fill="#63CBBD"/>
<path d="M377.317 321.317C377.608 286.989 391.485 254.189 402.276 222.27L406.314 211.078C423.59 165.182 439.496 118.52 456.802 72.5591C474.881 116.003 492.718 159.548 510.312 203.191L514.792 199.414C522.552 191.444 534.934 180.84 543.438 173.107C539.983 162.714 534.398 150.502 530.158 140.198L505.957 80.9971L485.306 30.9151C482.428 23.8711 476.619 8.33914 473.087 2.24214C470.546 1.59114 470.658 1.64714 468.028 2.02814C463.835 7.83114 449.872 50.4181 446.592 59.4001L400.26 185.329C384.824 227.414 368.65 272.712 346.895 312.004C340.598 323.378 332.194 333.578 321.292 340.633C316.222 343.914 306.782 344.261 304.325 348.624L304.926 350.353C307.172 351.385 321.666 350.418 325.198 350.354C341.326 350.062 357.491 350.139 373.602 350.14C379.139 350.141 400.34 351.952 404.297 350.283C403.707 343.732 377.104 346.429 377.317 321.317Z" fill="#63CBBD"/>
<path d="M526.152 0C527.892 0.451 534.008 1.775 535.152 2.248C559.573 12.359 751.714 3.652 758.022 8.311C759.124 10.68 759.531 14.018 758.383 16.255C752.44 27.845 744.977 39.805 738.418 51.039L701.485 113.765C695.131 124.471 687.011 137.326 681.183 148.12L680.713 148.901C677.667 147.483 671.184 142.571 669.279 142.636C666.816 144.85 664.084 149.113 663.05 152.271C666.295 154.662 671.337 155.944 675.639 158.883L675.573 159.249L674.889 159.214C673.702 158.967 665.513 155.457 663.683 154.746C656.34 151.893 651.303 150.78 643.754 149.24C642.028 147.682 641.763 148.697 639.951 147.345C640.789 143.453 645.156 137.34 647.47 134.046C644.028 133.373 641.859 133.148 638.72 131.52L641.084 131.573C649.023 116.983 658.769 101.459 667.359 87.148L707.57 19.764C665.97 19.57 622.073 15.159 580.899 22.469C551.254 27.732 532.461 48.126 525.715 76.777C524.675 81.043 522.369 89.841 519.39 93.155L518.33 93.1C514.681 85.083 524.227 14.731 526.152 0Z" fill="#63CBBD"/>
<path fill-rule="evenodd" clip-rule="evenodd" d="M530.661 183.652C571.325 143.509 622.938 108.466 687.825 151.009C752.711 193.552 718.105 261.188 701.41 266.509C699.589 265.293 699.639 263.975 699.892 263.469C714.825 239.009 736.849 199.587 673.325 161.509C609.801 123.43 554.325 192.008 518.325 218.509C487.193 241.425 448.698 250.772 402.591 221.562L406.867 209.59C426.183 221.364 446.113 226.315 456.29 226.221C479.056 226.009 489.997 223.796 530.661 183.652ZM379.975 204.564C324.403 155.888 339.682 34.6784 441.871 40.744L437.318 53.6669C412.275 53.4135 353.324 61.0089 357.634 131.202C359.25 157.506 370.312 177.469 384.712 192.139L379.975 204.564Z" fill="#717574"/>
<path fill-rule="evenodd" clip-rule="evenodd" d="M530.661 183.652C571.325 143.509 622.938 108.466 687.825 151.009C752.711 193.552 718.105 261.188 701.41 266.509C699.589 265.293 699.639 263.975 699.892 263.469C714.825 239.009 736.849 199.587 673.325 161.509C609.801 123.43 554.325 192.008 518.325 218.509C487.193 241.425 448.698 250.772 402.591 221.562L406.867 209.59C426.183 221.364 446.113 226.315 456.29 226.221C479.056 226.009 489.997 223.796 530.661 183.652ZM379.975 204.564C324.403 155.888 339.682 34.6784 441.871 40.744L437.318 53.6669C412.275 53.4135 353.324 61.0089 357.634 131.202C359.25 157.506 370.312 177.469 384.712 192.139L379.975 204.564Z" fill="url(#paint1_radial_26_20)"/>
<path fill-rule="evenodd" clip-rule="evenodd" d="M530.661 183.652C571.325 143.509 622.938 108.466 687.825 151.009C752.711 193.552 718.105 261.188 701.41 266.509C699.589 265.293 699.639 263.975 699.892 263.469C714.825 239.009 736.849 199.587 673.325 161.509C609.801 123.43 554.325 192.008 518.325 218.509C487.193 241.425 448.698 250.772 402.591 221.562L406.867 209.59C426.183 221.364 446.113 226.315 456.29 226.221C479.056 226.009 489.997 223.796 530.661 183.652ZM379.975 204.564C324.403 155.888 339.682 34.6784 441.871 40.744L437.318 53.6669C412.275 53.4135 353.324 61.0089 357.634 131.202C359.25 157.506 370.312 177.469 384.712 192.139L379.975 204.564Z" fill="url(#paint2_radial_26_20)"/>
<path fill-rule="evenodd" clip-rule="evenodd" d="M530.661 183.652C571.325 143.509 622.938 108.466 687.825 151.009C752.711 193.552 718.105 261.188 701.41 266.509C699.589 265.293 699.639 263.975 699.892 263.469C714.825 239.009 736.849 199.587 673.325 161.509C609.801 123.43 554.325 192.008 518.325 218.509C487.193 241.425 448.698 250.772 402.591 221.562L406.867 209.59C426.183 221.364 446.113 226.315 456.29 226.221C479.056 226.009 489.997 223.796 530.661 183.652ZM379.975 204.564C324.403 155.888 339.682 34.6784 441.871 40.744L437.318 53.6669C412.275 53.4135 353.324 61.0089 357.634 131.202C359.25 157.506 370.312 177.469 384.712 192.139L379.975 204.564Z" fill="url(#paint3_radial_26_20)"/>
<path fill-rule="evenodd" clip-rule="evenodd" d="M530.661 183.652C571.325 143.509 622.938 108.466 687.825 151.009C752.711 193.552 718.105 261.188 701.41 266.509C699.589 265.293 699.639 263.975 699.892 263.469C714.825 239.009 736.849 199.587 673.325 161.509C609.801 123.43 554.325 192.008 518.325 218.509C487.193 241.425 448.698 250.772 402.591 221.562L406.867 209.59C426.183 221.364 446.113 226.315 456.29 226.221C479.056 226.009 489.997 223.796 530.661 183.652ZM379.975 204.564C324.403 155.888 339.682 34.6784 441.871 40.744L437.318 53.6669C412.275 53.4135 353.324 61.0089 357.634 131.202C359.25 157.506 370.312 177.469 384.712 192.139L379.975 204.564Z" fill="url(#paint4_radial_26_20)"/>
<defs>
<linearGradient id="paint0_linear_26_20" x1="445.837" y1="791.474" x2="525.523" y2="773.059" gradientUnits="userSpaceOnUse">
<stop/>
<stop offset="1" stop-color="#02053E"/>
</linearGradient>
<radialGradient id="paint1_radial_26_20" cx="0" cy="0" r="1" gradientUnits="userSpaceOnUse" gradientTransform="translate(707.324 166.509) rotate(155.442) scale(83.009 101.592)">
<stop stop-color="white"/>
<stop offset="1" stop-color="white" stop-opacity="0"/>
</radialGradient>
<radialGradient id="paint2_radial_26_20" cx="0" cy="0" r="1" gradientUnits="userSpaceOnUse" gradientTransform="translate(478.824 236.009) rotate(-10.7389) scale(59.0339 72.2497)">
<stop stop-color="white"/>
<stop offset="1" stop-color="white" stop-opacity="0"/>
</radialGradient>
<radialGradient id="paint3_radial_26_20" cx="0" cy="0" r="1" gradientUnits="userSpaceOnUse" gradientTransform="translate(392.824 56.009) rotate(50.8263) scale(34.8282 42.6251)">
<stop stop-color="white"/>
<stop offset="1" stop-color="white" stop-opacity="0"/>
</radialGradient>
<radialGradient id="paint4_radial_26_20" cx="0" cy="0" r="1" gradientUnits="userSpaceOnUse" gradientTransform="translate(373.824 186.009) rotate(-68.2946) scale(110.86 33.522)">
<stop stop-color="white"/>
<stop offset="1" stop-color="white" stop-opacity="0"/>
</radialGradient>
</defs>
</svg>
