<svg width="472" height="472" viewBox="0 0 472 472" fill="none" xmlns="http://www.w3.org/2000/svg">
<path d="M326.528 205.359C331.266 205.501 334.735 205.686 339.429 206.24C346.978 207.78 352.015 208.893 359.358 211.746C361.188 212.457 369.377 215.967 370.564 216.214C367.723 219.758 361.358 231.158 358.761 235.596L337.249 272.318L264.184 395.794C330.093 395.044 425.653 412.905 457.488 338.136C459.425 333.586 465.69 315.281 467.619 312.991L470.859 313.394L471.589 314.382C471.359 319.521 469.149 323.618 468.119 328.661C462.212 357.468 453.993 385.692 447.819 414.455C418.87 405.947 360.22 407.854 328.039 407.841L208.745 407.937C214.259 394.819 243.237 354.992 239.873 344.201C234.752 327.777 223.577 301.922 215.98 285.994C227.987 278.485 240.449 266.41 250.154 256.217L269.347 302.348C287.149 270.598 307.844 236.848 326.528 205.359Z" fill="#63CBBD"/>
<path d="M72.992 378.317C73.283 343.989 87.16 311.189 97.951 279.27L101.989 268.078C119.265 222.182 135.171 175.52 152.477 129.559C170.556 173.003 188.393 216.548 205.987 260.191L210.467 256.414C218.227 248.444 230.609 237.84 239.113 230.107C235.658 219.714 230.073 207.502 225.833 197.198L201.632 137.997L180.981 87.9154C178.103 80.8714 172.294 65.3394 168.762 59.2424C166.221 58.5914 166.333 58.6474 163.703 59.0284C159.51 64.8314 145.547 107.418 142.267 116.4L95.935 242.329C80.499 284.414 64.325 329.712 42.57 369.004C36.273 380.378 27.869 390.578 16.967 397.633C11.897 400.914 2.457 401.261 0 405.624L0.601013 407.353C2.84701 408.385 17.341 407.418 20.873 407.354C37.001 407.062 53.166 407.139 69.277 407.14C74.814 407.141 96.015 408.952 99.972 407.283C99.382 400.732 72.779 403.429 72.992 378.317Z" fill="#63CBBD"/>
<path d="M221.827 57C223.567 57.451 229.683 58.775 230.827 59.248C255.248 69.359 447.389 60.652 453.697 65.311C454.799 67.68 455.206 71.018 454.058 73.255C448.115 84.845 440.652 96.805 434.093 108.039L397.16 170.765C390.806 181.471 382.686 194.326 376.858 205.12L376.388 205.901C373.342 204.483 366.859 199.571 364.954 199.636C362.491 201.85 359.759 206.113 358.725 209.271C361.97 211.662 367.012 212.944 371.314 215.883L371.248 216.249L370.564 216.214C369.377 215.967 361.188 212.457 359.358 211.746C352.015 208.893 346.978 207.78 339.429 206.24C337.703 204.682 337.438 205.697 335.626 204.345C336.464 200.453 340.831 194.34 343.145 191.046C339.703 190.373 337.534 190.148 334.395 188.52L336.759 188.573C344.698 173.983 354.444 158.459 363.034 144.148L403.245 76.764C361.645 76.57 317.748 72.159 276.574 79.469C246.929 84.732 228.136 105.126 221.39 133.777C220.35 138.043 218.044 146.841 215.065 150.155L214.005 150.1C210.356 142.083 219.902 71.731 221.827 57Z" fill="#63CBBD"/>
<path d="M226.335 240.652C266.999 200.509 318.612 165.466 383.499 208.009C448.385 250.551 413.78 318.187 397.085 323.509C395.264 322.293 395.314 320.976 395.567 320.469C410.5 296.009 432.523 256.587 368.999 218.509C305.475 180.43 249.999 249.009 213.999 275.509C182.867 298.425 144.372 307.772 98.2646 278.561L102.541 266.59C121.857 278.364 141.788 283.315 151.965 283.221C174.731 283.009 185.671 280.795 226.335 240.652ZM75.6494 261.564C20.0773 212.888 35.3572 91.6783 137.546 97.744L132.992 110.667C107.949 110.414 48.9994 118.009 53.3095 188.202C54.9247 214.507 65.9869 234.469 80.3867 249.139L75.6494 261.564Z" fill="#717574"/>
<path d="M226.335 240.652C266.999 200.509 318.612 165.466 383.499 208.009C448.385 250.551 413.78 318.187 397.085 323.509C395.264 322.293 395.314 320.976 395.567 320.469C410.5 296.009 432.523 256.587 368.999 218.509C305.475 180.43 249.999 249.009 213.999 275.509C182.867 298.425 144.372 307.772 98.2646 278.561L102.541 266.59C121.857 278.364 141.788 283.315 151.965 283.221C174.731 283.009 185.671 280.795 226.335 240.652ZM75.6494 261.564C20.0773 212.888 35.3572 91.6783 137.546 97.744L132.992 110.667C107.949 110.414 48.9994 118.009 53.3095 188.202C54.9247 214.507 65.9869 234.469 80.3867 249.139L75.6494 261.564Z" fill="url(#paint0_radial_19_275)"/>
<path d="M226.335 240.652C266.999 200.509 318.612 165.466 383.499 208.009C448.385 250.551 413.78 318.187 397.085 323.509C395.264 322.293 395.314 320.976 395.567 320.469C410.5 296.009 432.523 256.587 368.999 218.509C305.475 180.43 249.999 249.009 213.999 275.509C182.867 298.425 144.372 307.772 98.2646 278.561L102.541 266.59C121.857 278.364 141.788 283.315 151.965 283.221C174.731 283.009 185.671 280.795 226.335 240.652ZM75.6494 261.564C20.0773 212.888 35.3572 91.6783 137.546 97.744L132.992 110.667C107.949 110.414 48.9994 118.009 53.3095 188.202C54.9247 214.507 65.9869 234.469 80.3867 249.139L75.6494 261.564Z" fill="url(#paint1_radial_19_275)"/>
<path d="M226.335 240.652C266.999 200.509 318.612 165.466 383.499 208.009C448.385 250.551 413.78 318.187 397.085 323.509C395.264 322.293 395.314 320.976 395.567 320.469C410.5 296.009 432.523 256.587 368.999 218.509C305.475 180.43 249.999 249.009 213.999 275.509C182.867 298.425 144.372 307.772 98.2646 278.561L102.541 266.59C121.857 278.364 141.788 283.315 151.965 283.221C174.731 283.009 185.671 280.795 226.335 240.652ZM75.6494 261.564C20.0773 212.888 35.3572 91.6783 137.546 97.744L132.992 110.667C107.949 110.414 48.9994 118.009 53.3095 188.202C54.9247 214.507 65.9869 234.469 80.3867 249.139L75.6494 261.564Z" fill="url(#paint2_radial_19_275)"/>
<path d="M226.335 240.652C266.999 200.509 318.612 165.466 383.499 208.009C448.385 250.551 413.78 318.187 397.085 323.509C395.264 322.293 395.314 320.976 395.567 320.469C410.5 296.009 432.523 256.587 368.999 218.509C305.475 180.43 249.999 249.009 213.999 275.509C182.867 298.425 144.372 307.772 98.2646 278.561L102.541 266.59C121.857 278.364 141.788 283.315 151.965 283.221C174.731 283.009 185.671 280.795 226.335 240.652ZM75.6494 261.564C20.0773 212.888 35.3572 91.6783 137.546 97.744L132.992 110.667C107.949 110.414 48.9994 118.009 53.3095 188.202C54.9247 214.507 65.9869 234.469 80.3867 249.139L75.6494 261.564Z" fill="url(#paint3_radial_19_275)"/>
<defs>
<radialGradient id="paint0_radial_19_275" cx="0" cy="0" r="1" gradientUnits="userSpaceOnUse" gradientTransform="translate(402.999 223.509) rotate(155.442) scale(83.009 101.592)">
<stop stop-color="white"/>
<stop offset="1" stop-color="white" stop-opacity="0"/>
</radialGradient>
<radialGradient id="paint1_radial_19_275" cx="0" cy="0" r="1" gradientUnits="userSpaceOnUse" gradientTransform="translate(174.499 293.009) rotate(-10.7389) scale(59.0339 72.2497)">
<stop stop-color="white"/>
<stop offset="1" stop-color="white" stop-opacity="0"/>
</radialGradient>
<radialGradient id="paint2_radial_19_275" cx="0" cy="0" r="1" gradientUnits="userSpaceOnUse" gradientTransform="translate(88.499 113.009) rotate(50.8263) scale(34.8282 42.6251)">
<stop stop-color="white"/>
<stop offset="1" stop-color="white" stop-opacity="0"/>
</radialGradient>
<radialGradient id="paint3_radial_19_275" cx="0" cy="0" r="1" gradientUnits="userSpaceOnUse" gradientTransform="translate(69.499 243.009) rotate(-68.2946) scale(110.86 33.522)">
<stop stop-color="white"/>
<stop offset="1" stop-color="white" stop-opacity="0"/>
</radialGradient>
</defs>
</svg>
